# xmcd
#
# Track frame offsets: 
#        150
#        31393
#        58898
#        86710
#        117343
#        152673
#        188525
#        222394
#        248343
#        275010
#
# Disc length: 4000 seconds
#
# Revision: 1
# Processed by: cddbd v1.5.2PL0 Copyright (c) Steve Scherf et al.
# Submitted via: ExactAudioCopy v0.95b4
#
DISCID=880f9e0a
DTITLE=Jerry Bergonzi - Vertical Reality
DYEAR=2005
DGENRE=Jazz
TTITLE0=Yesterdays
TTITLE1=Loud - Zee
TTITLE2=On Green Dolphin Street
TTITLE3=Jab
TTITLE4=Lover Man
TTITLE5=Jones
TTITLE6=Fall
TTITLE7=Windows
TTITLE8=On Green Dolphin Street (Alternate)
TTITLE9=Windows (Alternate)
EXTD=YEAR: 2005
EXTT0=
EXTT1=
EXTT2=
EXTT3=
EXTT4=
EXTT5=
EXTT6=
EXTT7=
EXTT8=
EXTT9=
PLAYORDER=
